<svg width="36" height="30" viewBox="0 0 36 30" fill="none" xmlns="http://www.w3.org/2000/svg">
<path d="M34.0002 17C35.1048 17 36.0002 16.1046 36.0002 15C36.0002 13.8954 35.1048 13 34.0002 13L34.0002 17ZM0.585968 13.5858C-0.19508 14.3668 -0.19508 15.6332 0.585968 16.4142L13.3139 29.1421C14.0949 29.9232 15.3613 29.9232 16.1423 29.1421C16.9234 28.3611 16.9234 27.0948 16.1423 26.3137L4.82861 15L16.1423 3.68629C16.9234 2.90524 16.9234 1.63891 16.1423 0.857863C15.3613 0.076814 14.0949 0.0768139 13.3139 0.857863L0.585968 13.5858ZM34.0002 13L2.00018 13L2.00018 17L34.0002 17L34.0002 13Z" fill="#040404"/>
</svg>
