<svg width="36" height="30" viewBox="0 0 36 30" fill="none" xmlns="http://www.w3.org/2000/svg">
<path d="M1.95599 13.3907C0.851754 13.4177 -0.0215774 14.3347 0.00535536 15.4389C0.0322881 16.5431 0.949286 17.4165 2.05353 17.3895L1.95599 13.3907ZM35.4435 15.9892C36.2053 15.1893 36.1744 13.9234 35.3746 13.1616L22.3401 0.747812C21.5402 -0.0139603 20.2743 0.0169167 19.5125 0.816778C18.7507 1.61664 18.7816 2.88259 19.5815 3.64436L31.1677 14.6788L20.1332 26.2651C19.3714 27.0649 19.4023 28.3309 20.2021 29.0926C21.002 29.8544 22.268 29.8235 23.0297 29.0237L35.4435 15.9892ZM2.05353 17.3895L34.044 16.6093L33.9465 12.6105L1.95599 13.3907L2.05353 17.3895Z" fill="#040404"/>
</svg>
