<svg width="21" height="24" viewBox="0 0 21 24" fill="none" xmlns="http://www.w3.org/2000/svg">
<path d="M11.8333 1.33333C11.8333 0.596953 11.2364 -3.96996e-07 10.5 -4.29185e-07C9.76359 -4.61374e-07 9.16665 0.596953 9.16665 1.33333L11.8333 1.33333ZM9.55719 23.6095C10.0779 24.1302 10.9221 24.1302 11.4428 23.6095L19.9281 15.1242C20.4488 14.6035 20.4488 13.7593 19.9281 13.2386C19.4074 12.7179 18.5632 12.7179 18.0425 13.2386L10.5 20.7811L2.95752 13.2386C2.43679 12.7179 1.59259 12.7179 1.07192 13.2386C0.551187 13.7593 0.551187 14.6035 1.07192 15.1242L9.55719 23.6095ZM9.16665 1.33333L9.16665 22.6667L11.8333 22.6667L11.8333 1.33333L9.16665 1.33333Z" fill="#DCEEF1"/>
</svg>
