<svg width="11" height="12" viewBox="0 0 11 12" fill="none" xmlns="http://www.w3.org/2000/svg">
<path d="M10.0763 2.28724L1.59099 10.7725C1.30108 11.0624 0.820244 11.0624 0.53033 10.7725C0.240416 10.4826 0.240416 10.0018 0.53033 9.71186L9.01561 1.22658C9.30552 0.936663 9.78636 0.936662 10.0763 1.22658C10.3662 1.51649 10.3662 1.99732 10.0763 2.28724Z" fill="#537980"/>
<path d="M10.0768 10.7724C9.78685 11.0624 9.30601 11.0624 9.0161 10.7724L0.530818 2.28717C0.240905 1.99725 0.240905 1.51642 0.530818 1.22651C0.820732 0.936592 1.30156 0.936592 1.59148 1.22651L10.0768 9.71179C10.3667 10.0017 10.3667 10.4825 10.0768 10.7724Z" fill="#537980"/>
</svg>
